<svg width="32" height="33" viewBox="0 0 32 33" fill="none" xmlns="http://www.w3.org/2000/svg">
<path d="M12.4527 29.1667C12.9327 29.1667 13.3727 28.9133 13.6394 28.5133L19.8927 18.5H27.2261C28.3327 18.5 29.2261 17.6067 29.2261 16.5C29.2261 15.3933 28.3327 14.5 27.2261 14.5H19.8927L13.6394 4.48668C13.3861 4.08668 12.9327 3.83334 12.4527 3.83334C11.5194 3.83334 10.8394 4.74001 11.1194 5.64668L13.8927 14.5H6.55941L4.75941 12.1C4.63941 11.9267 4.43941 11.8333 4.22608 11.8333H3.43941C2.99941 11.8333 2.67941 12.26 2.79941 12.6867L3.89274 16.5L2.79941 20.3133C2.67941 20.74 2.99941 21.1667 3.43941 21.1667H4.22608C4.43941 21.1667 4.63941 21.0733 4.75941 20.9L6.55941 18.5H13.8927L11.1194 27.3533C10.8394 28.26 11.5194 29.1667 12.4527 29.1667Z" fill="#0060A7"/>
</svg>
